<svg width="38" height="38" viewBox="0 0 38 38" fill="none" xmlns="http://www.w3.org/2000/svg">
<path fill-rule="evenodd" clip-rule="evenodd" d="M19.0001 0.666626C8.87508 0.666626 0.666748 8.87496 0.666748 19C0.666748 29.125 8.87508 37.3333 19.0001 37.3333C29.1251 37.3333 37.3334 29.125 37.3334 19C37.3334 8.87496 29.1251 0.666626 19.0001 0.666626ZM25.1784 15.1783C25.482 14.864 25.65 14.443 25.6462 14.006C25.6424 13.569 25.4671 13.1509 25.1581 12.8419C24.8491 12.5329 24.4311 12.3576 23.9941 12.3538C23.5571 12.35 23.1361 12.518 22.8217 12.8216L19.0001 16.6433L15.1784 12.8216C15.0247 12.6624 14.8408 12.5355 14.6374 12.4481C14.4341 12.3608 14.2154 12.3148 13.9941 12.3129C13.7728 12.311 13.5533 12.3531 13.3485 12.4369C13.1437 12.5207 12.9576 12.6445 12.8011 12.801C12.6446 12.9575 12.5208 13.1435 12.437 13.3484C12.3532 13.5532 12.3111 13.7727 12.313 13.994C12.3149 14.2153 12.3609 14.434 12.4482 14.6373C12.5356 14.8406 12.6626 15.0245 12.8217 15.1783L16.6434 19L12.8217 22.8216C12.6626 22.9754 12.5356 23.1593 12.4482 23.3626C12.3609 23.566 12.3149 23.7847 12.313 24.006C12.3111 24.2273 12.3532 24.4467 12.437 24.6515C12.5208 24.8564 12.6446 25.0425 12.8011 25.1989C12.9576 25.3554 13.1437 25.4792 13.3485 25.563C13.5533 25.6468 13.7728 25.689 13.9941 25.687C14.2154 25.6851 14.4341 25.6391 14.6374 25.5518C14.8408 25.4644 15.0247 25.3375 15.1784 25.1783L19.0001 21.3566L22.8217 25.1783C23.1361 25.4819 23.5571 25.6499 23.9941 25.6461C24.4311 25.6423 24.8491 25.467 25.1581 25.158C25.4671 24.849 25.6424 24.431 25.6462 23.994C25.65 23.557 25.482 23.136 25.1784 22.8216L21.3567 19L25.1784 15.1783Z" fill="#F24E1E"/>
</svg>
