<svg width="40" height="40" viewBox="0 0 40 40" fill="none" xmlns="http://www.w3.org/2000/svg">
<path fill-rule="evenodd" clip-rule="evenodd" d="M20.0001 1.66663C9.87508 1.66663 1.66675 9.87496 1.66675 20C1.66675 30.125 9.87508 38.3333 20.0001 38.3333C30.1251 38.3333 38.3334 30.125 38.3334 20C38.3334 9.87496 30.1251 1.66663 20.0001 1.66663ZM27.9467 16.9C28.0931 16.7327 28.2045 16.5379 28.2744 16.3269C28.3443 16.116 28.3713 15.8931 28.3539 15.6716C28.3364 15.4501 28.2748 15.2342 28.1727 15.0368C28.0706 14.8394 27.9301 14.6645 27.7593 14.5222C27.5886 14.3799 27.3911 14.2732 27.1786 14.2084C26.966 14.1436 26.7426 14.1219 26.5216 14.1447C26.3005 14.1674 26.0862 14.2342 25.8913 14.341C25.6964 14.4478 25.5249 14.5925 25.3867 14.7666L18.2201 23.365L14.5117 19.655C14.1974 19.3514 13.7764 19.1834 13.3394 19.1872C12.9024 19.191 12.4844 19.3662 12.1754 19.6753C11.8664 19.9843 11.6911 20.4023 11.6873 20.8393C11.6835 21.2763 11.8515 21.6973 12.1551 22.0116L17.1551 27.0116C17.3188 27.1753 17.5149 27.303 17.7308 27.3867C17.9466 27.4704 18.1776 27.5082 18.4089 27.4977C18.6401 27.4872 18.8667 27.4286 19.0741 27.3257C19.2815 27.2228 19.4652 27.0778 19.6134 26.9L27.9467 16.9Z" fill="#AACB9F"/>
</svg>
