<svg width="38" height="40" viewBox="0 0 38 40" fill="none" xmlns="http://www.w3.org/2000/svg">
<path d="M37.1465 5.71429V19.933C37.1465 21.5699 37.1428 22.7083 37.1354 23.3482C37.1279 23.9881 37.1168 24.9554 37.1019 26.25C37.087 27.5446 37.0647 28.4561 37.0349 28.9844C37.0051 29.5126 36.9568 30.2716 36.8898 31.2612C36.8229 32.2507 36.741 32.9762 36.6443 33.4375C36.5476 33.8988 36.4285 34.4978 36.2871 35.2344C36.1458 35.971 35.9821 36.5662 35.7961 37.0201C35.6101 37.474 35.3906 37.965 35.1376 38.4933C34.8846 39.0216 34.6019 39.5238 34.2894 40H0.00366211C1.17926 36.3988 1.94935 33.0692 2.31393 30.0112C2.67851 26.9531 2.86081 22.6637 2.86081 17.1429V5.71429H8.57509V4.50893C8.57509 3.1994 9.08104 2.10565 10.0929 1.22768C11.0602 0.409226 12.2879 0 13.776 0C15.1302 0 16.2574 0.290179 17.1577 0.870536C18.058 1.45089 18.6569 2.10565 18.9546 2.83482C19.148 3.32589 19.2447 3.9881 19.2447 4.82143H16.3876C16.3132 3.95833 16.0528 3.34449 15.6063 2.97991C15.1599 2.61533 14.4903 2.43304 13.5974 2.43304C12.8236 2.43304 12.2135 2.80506 11.7671 3.54911C11.6778 3.7128 11.6071 3.89881 11.555 4.10714C11.5029 4.31548 11.4694 4.47173 11.4546 4.57589C11.4397 4.68006 11.4322 4.88095 11.4322 5.17857V5.71429H37.1465ZM11.4322 8.57143V18.5714C11.4174 19.0476 11.529 19.3936 11.7671 19.6094C12.0052 19.8251 12.3697 19.9554 12.8608 20C13.456 20 13.8429 19.907 14.0215 19.721C14.2001 19.535 14.2894 19.1518 14.2894 18.5714V11.4286H17.1465V18.5714C17.1465 19.628 17.0572 20.3646 16.8787 20.7812C16.2685 22.1652 14.9293 22.8571 12.8608 22.8571C11.581 22.8571 10.5468 22.4628 9.75813 21.6741C8.96944 20.8854 8.57509 19.8512 8.57509 18.5714V8.57143H5.71795V17.1429C5.71795 21.994 5.58774 25.8259 5.32732 28.6384C5.06691 31.4509 4.53491 34.2857 3.73134 37.1429H32.1912C32.6078 36.2946 32.9501 35.3832 33.2179 34.4085C33.4858 33.4338 33.6904 32.5521 33.8318 31.7634C33.9732 30.9747 34.0773 29.8214 34.1443 28.3036C34.2113 26.7857 34.2522 25.5692 34.2671 24.654C34.2819 23.7388 34.2894 22.1652 34.2894 19.933V8.57143H11.4322Z" fill="#EE9D6B"/>
</svg>
